<mxfile host="app.diagrams.net" modified="2024-04-30T19:01:20.347Z" agent="Mozilla/5.0 (Windows NT 10.0; Win64; x64) AppleWebKit/537.36 (KHTML, like Gecko) Chrome/124.0.0.0 Safari/537.36" version="23.1.4" etag="ItCsvzYLFf9AhB4lQQ04" type="github">
  <diagram name="Page-1" id="KZE4mElChmwRz9R2rDpO">
    <mxGraphModel>
      <root>
        <mxCell id="0" />
        <mxCell id="1" parent="0" />
      </root>
    </mxGraphModel>
  </diagram>
</mxfile>
